<?xml version="1.0" encoding="utf-8"?>
<!-- Generator: Adobe Illustrator 24.2.3, SVG Export Plug-In . SVG Version: 6.00 Build 0)  -->
<svg version="1.1" id="Layer_1" xmlns="http://www.w3.org/2000/svg" xmlns:xlink="http://www.w3.org/1999/xlink" x="0px" y="0px"
	 viewBox="0 0 100 100" style="enable-background:new 0 0 100 100;" xml:space="preserve">
<style type="text/css">
	.st0{stroke:#000000;stroke-miterlimit:10;}
</style>
<path class="st0" d="M58,100H41.5c-1.2,0-2.1-0.9-2.1-2.1V2.1c0-1.1,0.9-2.1,2.1-2.1H58c1.2,0,2.1,0.9,2.1,2.1v95.8
	C60.1,99.1,59.2,100,58,100z"/>
<path class="st0" d="M97.9,60.5H2.1c-1.1,0-2.1-0.9-2.1-2.1V45.3c0-1.2,0.9-2.1,2.1-2.1h95.8c1.2,0,2.1,0.9,2.1,2.1v13.1
	C100,59.6,99.1,60.5,97.9,60.5z"/>
</svg>
